<svg width="24" height="24" viewBox="0 0 24 24" fill="none" xmlns="http://www.w3.org/2000/svg">
<rect width="24" height="24" rx="12" fill="#113C54"/>
<rect x="4.80078" y="5.60156" width="12" height="1.6" rx="0.8" fill="white"/>
<rect x="4.80078" y="8.80273" width="12" height="1.6" rx="0.8" fill="white"/>
<rect x="4.80078" y="12.002" width="9.6" height="1.6" rx="0.8" fill="white"/>
<rect x="4.2" y="4.2" width="15.6" height="15.6" rx="1.4" stroke="white" stroke-width="0.4"/>
<path d="M15.7957 12.4453C15.9425 12.2803 16.2004 12.2595 16.3718 12.3989L17.5792 13.3814C17.7506 13.5208 17.7705 13.7677 17.6236 13.9327L13.2589 18.8393C13.1928 18.9137 13.1003 18.9619 12.9994 18.9747L11.7252 19.136C11.4736 19.1678 11.2544 18.9751 11.2663 18.7326L11.3216 17.6017C11.3259 17.5147 11.3603 17.4314 11.4195 17.3649L15.7957 12.4453Z" fill="white"/>
<path d="M17.0845 10.9962C17.3782 10.666 17.894 10.6245 18.2367 10.9033L18.8236 11.3809C19.1664 11.6597 19.2061 12.1534 18.9125 12.4835L18.4074 13.0513L16.5794 11.5639L17.0845 10.9962Z" fill="white"/>
</svg>
